HIERARCHY
ROOT Hips
{
	OFFSET	0.000000	0.000000	0.000000
	CHANNELS 6 Xposition Yposition Zposition Zrotation Xrotation Yrotation
	JOINT LeftHip
	{
		OFFSET	10.628554	-12.025426	0.145870
		CHANNELS 3 Zrotation Xrotation Yrotation
		JOINT LeftKnee
		{
			OFFSET	0.063751	-35.282885	-0.125152
			CHANNELS 3 Zrotation Xrotation Yrotation
			JOINT LeftAnkle
			{
				OFFSET	-1.605697	-35.971224	-3.706495
				CHANNELS 3 Zrotation Xrotation Yrotation
				JOINT LeftAnkleEnd
				{
					OFFSET	0.623245	-4.766945	-2.510598
					CHANNELS 3 Zrotation Xrotation Yrotation
					End Site
					{
						OFFSET	0.568289	0.000024	14.236649
					}
				}
			}
		}
	}
	JOINT RightHip
	{
		OFFSET	-10.628554	-12.025426	0.145870
		CHANNELS 3 Zrotation Xrotation Yrotation
		JOINT RightKnee
		{
			OFFSET	-0.063751	-35.282885	-0.125152
			CHANNELS 3 Zrotation Xrotation Yrotation
			JOINT RightAnkle
			{
				OFFSET	1.605697	-35.971224	-3.706495
				CHANNELS 3 Zrotation Xrotation Yrotation
				JOINT RightAnkleEnd
				{
					OFFSET	-0.623245	-4.766945	-2.510598
					CHANNELS 3 Zrotation Xrotation Yrotation
					End Site
					{
						OFFSET	-0.568289	0.000024	14.236649
					}
				}
			}
		}
	}
	JOINT Chest
	{
		OFFSET	0.000000	12.026417	-0.714291
		CHANNELS 3 Zrotation Xrotation Yrotation
		JOINT Chest1
		{
			OFFSET	0.000000	9.058884	0.000000
			CHANNELS 3 Zrotation Xrotation Yrotation
			JOINT LeftCollar
			{
				OFFSET	3.957193	15.332404	-1.829478
				CHANNELS 3 Zrotation Xrotation Yrotation
				JOINT LeftShoulder
				{
					OFFSET	10.550170	-2.240910	0.518958
					CHANNELS 3 Zrotation Xrotation Yrotation
					JOINT LeftElbow
					{
						OFFSET	4.297553	-25.599643	-0.166695
						CHANNELS 3 Zrotation Xrotation Yrotation
						JOINT LeftWrist
						{
							OFFSET	2.822981	-22.410623	4.642079
							CHANNELS 3 Zrotation Xrotation Yrotation
							End Site
							{
								OFFSET	1.134968	-7.923276	1.802445
							}
						}
					}
				}
			}
			JOINT RightCollar
			{
				OFFSET	-3.957193	15.332404	-1.829478
				CHANNELS 3 Zrotation Xrotation Yrotation
				JOINT RightShoulder
				{
					OFFSET	-10.550170	-2.240910	0.518958
					CHANNELS 3 Zrotation Xrotation Yrotation
					JOINT RightElbow
					{
						OFFSET	-4.297553	-25.599643	-0.166695
						CHANNELS 3 Zrotation Xrotation Yrotation
						JOINT RightWrist
						{
							OFFSET	-2.822981	-22.410623	4.642079
							CHANNELS 3 Zrotation Xrotation Yrotation
							End Site
							{
								OFFSET	-1.134968	-7.923276	1.802445
							}
						}
					}
				}
			}
			JOINT Neck
			{
				OFFSET	0.000000	20.347508	-0.117170
				CHANNELS 3 Zrotation Xrotation Yrotation
				JOINT Head
				{
					OFFSET	0.000000	9.048420	0.880189
					CHANNELS 3 Zrotation Xrotation Yrotation
					End Site
					{
						OFFSET	0.000000	13.896797	-0.059005
					}
				}
			}
		}
	}
}
MOTION
Frames:     14
Frame Time: 0.016667
2.960661	82.660254	91.045488	-6.886917	9.903034	0.642965	5.795814	-43.681671	13.551935	101.341133	72.723160	-86.071732	-2.965544	-4.380837	2.730635	0.	0.	0.	11.458102	-11.059316	-4.442322	-5.544097	31.942343	13.515457	-5.641157	-25.821695	-10.289549	0.	0.	0.	-0.000000	0.000000	0.000001	8.597805	7.350658	6.141328	1.731131	-2.203328	-2.888109	1.736075	22.822193	14.625085	71.018372	-118.323631	70.050919	-8.364870	-15.101610	-12.321115	-2.844415	-2.268098	1.485005	-18.493061	-7.824172	-4.783607	100.912949	-51.216801	84.893608	4.046005	-22.379091	30.604879	-1.301302	-13.564629	2.399640	-9.155079	-14.885844	0.520973	
2.985221	84.740514	94.271473	-6.452081	10.460409	1.044832	3.417377	-44.989380	10.963739	78.684929	74.394394	-65.081772	-3.291857	-5.107057	3.823502	0.	0.	0.	10.741082	-7.403044	-3.770814	-4.489599	26.768574	11.468334	-3.049388	-15.991491	-8.531700	0.	0.	0.	0.000000	-0.000001	0.000001	7.972738	6.348860	6.825601	1.569243	-2.164259	-1.773627	2.882660	24.873529	14.976416	70.307007	-119.532478	70.024742	-7.899100	-15.048288	-12.662040	-2.922803	-2.287253	1.577466	-18.350256	-7.994831	-4.522549	102.375900	-50.752541	86.132729	3.976859	-22.269634	30.395704	-1.448736	-13.290030	2.370312	-8.318943	-14.041619	0.067770	
2.894098	86.609528	96.300719	-5.324511	12.014252	2.719414	-0.230085	-46.425659	7.272222	52.312561	72.155540	-40.161522	-2.566821	-1.532854	4.647937	0.	0.	0.	9.204116	-7.317602	-4.596518	-3.824206	24.194708	9.868850	-1.471275	-6.656130	-7.764192	0.	0.	0.	0.000001	-0.000000	-0.000001	6.726856	4.202146	6.165229	1.630608	-1.919689	-1.778862	3.255785	26.363573	16.198652	69.638611	-121.267822	69.622391	-7.558287	-15.074942	-12.751888	-3.192491	-2.725903	2.796371	-18.106936	-7.327338	-5.311999	103.592644	-50.211636	87.150650	3.925894	-22.162930	29.996387	-1.547638	-13.031080	2.289156	-7.938151	-13.441424	-0.591055	
3.348235	88.108332	100.387514	-4.743012	12.661708	3.923696	-2.141225	-45.579620	3.871205	30.676155	66.336983	-18.842617	-6.130558	-4.989785	3.596942	0.	0.	0.	7.518006	-3.562884	-3.691583	-1.615820	19.248749	5.324212	0.156548	4.354406	-6.081381	0.	0.	0.	-0.000000	0.000002	-0.000002	5.557331	2.262831	7.537631	1.985601	-1.099843	-1.740532	4.590309	27.562519	15.450457	70.455704	-121.447105	71.240883	-6.135880	-15.337084	-13.339232	-2.901101	-2.377438	2.277814	-18.254049	-7.798724	-3.982599	106.338699	-48.910378	89.464554	4.001015	-21.863396	27.900948	-1.679231	-12.392491	1.831592	-6.481460	-11.224149	-1.622189	
4.092426	89.396199	103.947113	-4.214369	12.839250	4.907811	-2.373408	-43.394871	4.191951	18.618500	53.125004	-7.013500	-9.259727	-3.701639	1.746441	0.	0.	0.	5.622177	-0.281973	-4.344024	-0.763483	14.953043	-0.455145	1.799363	16.753901	-0.438441	0.	0.	0.	0.000000	-0.000001	0.000000	4.661029	0.936837	8.410762	2.693546	-0.403125	-1.455397	4.727023	28.960918	16.152462	71.339401	-123.004684	72.594383	-4.349340	-15.564821	-14.732274	-2.717353	-2.536633	2.746413	-18.620787	-7.011256	-2.991874	-71.765785	-131.741196	-89.014091	3.820084	-21.695415	26.275843	-1.908037	-11.854225	0.764947	-5.661732	-9.932783	-2.060933	
4.085526	90.765214	108.202018	-3.975293	12.744898	5.368806	-2.500674	-42.325302	4.794870	16.793348	48.399120	-5.457846	-10.071393	-3.253374	1.065091	0.	0.	0.	5.114244	0.887296	-5.011106	-0.925639	14.045540	-2.014220	2.554116	21.996887	1.660267	0.	0.	0.	-0.000000	-0.000001	-0.000000	4.317021	0.684858	8.450870	3.003162	-0.178601	-1.442435	4.510351	29.296064	16.380514	71.492981	-123.382599	72.843063	-3.895158	-15.561565	-15.387003	-2.644520	-2.589873	2.791230	-18.688690	-6.672234	-2.572079	-71.346085	-131.889740	-88.653244	3.633151	-21.679705	26.165237	-1.933179	-11.698269	0.374585	-5.321882	-9.490347	-2.037162	
4.072179	91.881425	112.459868	-3.364175	12.340922	6.709467	-3.313734	-39.297478	6.236712	12.969369	35.050743	-3.824234	-11.323634	-3.067255	-0.784415	0.	0.	0.	4.333787	3.007560	-7.070345	-2.505230	14.636734	-2.956463	5.028283	31.081715	5.058458	0.	0.	0.	-0.000000	0.000001	-0.000001	3.373513	0.181890	8.290779	3.832072	0.444953	-1.443104	3.656499	30.034559	16.920172	71.262390	-124.051453	72.909584	-3.440226	-15.152503	-17.404833	-2.473495	-2.625903	2.739529	-18.698008	-5.577358	-1.563109	-70.708618	-132.337616	-87.917107	3.097432	-21.636034	26.544567	-1.849224	-11.242908	-0.405116	-4.409942	-8.636528	-2.201611	
4.074954	92.690387	116.674059	-3.149983	12.184167	7.598866	-4.352009	-37.855843	5.604477	10.632174	27.459974	-3.490241	-11.714710	-3.754287	-1.031472	0.	0.	0.	4.320981	2.705142	-8.534953	-3.548708	17.682169	1.084655	5.871661	32.608063	3.724711	0.	0.	0.	-0.000000	-0.000000	0.000000	2.875906	-0.181438	7.914060	4.115048	0.791570	-1.345824	3.290372	30.298378	17.328527	70.786629	-124.501198	72.848259	-3.758535	-14.300637	-18.438311	-2.436425	-2.538283	2.663278	-18.493015	-4.845351	-1.420963	-70.813942	-132.926941	-87.881035	2.804178	-21.508289	27.077942	-1.746134	-11.021309	-0.702630	-3.719332	-8.457417	-2.365508	
4.081819	93.216906	120.898849	-3.203010	12.075660	8.312858	-4.960819	-37.188534	4.854016	9.634274	24.115215	-3.318851	-12.069317	-4.059897	-1.041987	0.	0.	0.	4.521422	2.262579	-9.331080	-4.079643	19.797308	3.645012	6.258970	32.323242	2.275033	0.	0.	0.	-0.000000	0.000001	-0.000001	2.558988	-0.537203	7.523061	4.402307	1.096458	-1.409294	3.181071	30.345331	17.546659	70.504219	-124.740952	72.822006	-4.035949	-13.747850	-18.777412	-2.381787	-2.324999	2.630996	-18.104269	-4.210624	-1.617324	-71.373596	-133.617523	-88.354881	2.647446	-21.260307	27.774464	-1.396863	-10.893174	-0.867256	-3.135809	-8.579840	-2.484881	
4.102790	93.464420	125.129793	-3.300858	12.026483	8.571576	-5.442890	-36.103256	4.942349	9.039366	20.489052	-3.408992	-13.691713	-6.636784	-1.598840	0.	0.	0.	4.904548	1.007035	-9.183217	-5.278695	24.527990	7.982788	7.226920	31.008595	-1.606334	0.	0.	0.	-0.000000	0.000001	0.000000	2.448985	-0.682270	7.343287	4.187641	1.253821	-1.057285	3.448903	30.254126	17.524055	69.450684	-124.929230	72.578094	-4.707188	-12.758282	-19.061197	-2.329663	-2.210010	2.642181	-17.867693	-3.892862	-1.723069	-71.789024	-133.878677	-88.752029	2.698241	-21.069433	28.159000	-1.156921	-10.923010	-0.897009	-2.911823	-8.648767	-2.530354	
4.136828	93.426554	129.326067	-3.413339	11.921562	8.746682	-5.792581	-35.543743	4.845377	6.860429	15.183994	-2.616252	-12.594573	-3.609279	-1.094735	0.	0.	0.	5.085439	0.313496	-8.843836	-6.477074	28.955727	10.029853	7.931234	27.807835	-3.477619	0.	0.	0.	-0.000001	0.000004	-0.000002	2.356690	-0.737416	7.214558	4.159949	1.445844	-0.955503	3.377825	30.033394	17.712988	69.094307	-125.079796	72.407219	-5.107233	-12.424779	-19.035248	-2.397837	-2.126560	2.654150	-17.327375	-3.128232	-1.839559	-72.025620	-134.196884	-88.681900	2.878407	-20.826233	28.510567	-0.949463	-11.049684	-0.943234	-2.686073	-8.677897	-2.550061	
4.220896	93.143141	133.455360	-3.618480	10.861010	8.958775	-7.794059	-33.849129	4.872936	8.141577	13.567656	-3.924719	-14.428239	-5.332948	-1.457068	0.	0.	0.	5.124204	-1.571183	-7.296227	-7.464886	35.851276	9.205568	6.503513	25.269289	-3.547693	0.	0.	0.	-0.000000	0.000000	0.000000	2.077945	0.067217	7.073294	4.048233	2.198867	-0.869482	2.725706	28.006533	17.612440	68.882225	-124.385262	72.188751	-6.656285	-12.295316	-18.781620	-1.966384	-1.990334	2.538258	-16.684792	-2.137717	-1.925995	105.800262	-46.108475	89.136627	4.163864	-19.841433	29.034575	-0.658066	-11.814588	-1.241078	-1.891828	-8.729970	-2.643436	
4.285550	92.573776	137.591735	-3.378003	9.602537	9.143746	-10.349502	-32.110241	4.443979	10.212845	14.029214	-5.066644	-15.256948	-6.430217	-1.852808	0.	0.	0.	4.699099	-2.729206	-6.737660	-9.140038	42.423782	9.166438	5.801300	21.697754	-2.250955	0.	0.	0.	0.000000	-0.000002	0.000000	1.637922	1.434149	6.895390	4.063945	2.722061	-0.962200	2.384097	25.976416	16.962915	68.741341	-123.359573	72.047096	-7.735632	-12.466258	-18.439842	-1.798308	-2.053943	2.412595	-15.995991	-0.930390	-2.226468	104.189133	-46.410137	87.891647	5.113849	-19.372589	28.781338	-0.756167	-12.511093	-1.529570	-1.286222	-8.866870	-2.824612	
4.209792	91.744612	141.646633	-2.046336	7.051126	9.564921	-10.084474	-29.207184	5.760630	9.786613	17.853561	-6.244384	-15.383345	-8.080736	-2.096323	0.	0.	0.	2.849328	-3.924323	-7.191948	-12.970406	52.564087	11.395659	4.801752	16.486326	0.952371	0.	0.	0.	-0.000000	0.000001	-0.000000	0.174229	4.636577	6.378747	4.267365	2.995868	-1.096030	1.725002	21.963247	15.104171	69.577850	-121.089050	72.617172	-8.594380	-12.662676	-17.627689	-1.610084	-2.521452	2.251199	-14.992593	1.250470	-2.746109	100.996773	-47.189823	85.558563	5.472443	-19.779816	27.941479	-1.076436	-13.536440	-1.990394	-0.393374	-9.471921	-3.273989	
